<svg width="7148" height="619" viewBox="0 0 7148 619" fill="none" xmlns="http://www.w3.org/2000/svg">
<path d="M469.354 0.862106C480.282 0.862106 488.623 4.31058 494.375 11.2075C500.702 17.5297 503.865 26.1509 503.865 37.071V581.067C503.865 591.987 500.702 600.895 494.375 607.792C488.623 614.115 480.282 617.276 469.354 617.276C458.425 617.276 449.797 614.115 443.47 607.792C437.143 600.895 433.98 591.987 433.98 581.067V334.501H69.8854V581.067C69.8854 591.987 66.7219 600.895 60.3948 607.792C54.0677 614.115 45.4399 617.276 34.5113 617.276C23.5827 617.276 14.9549 614.115 8.62782 607.792C2.87594 600.895 0 591.987 0 581.067V37.071C0 26.1509 2.87594 17.5297 8.62782 11.2075C14.9549 4.31058 23.5827 0.862106 34.5113 0.862106C45.4399 0.862106 54.0677 4.31058 60.3948 11.2075C66.7219 17.5297 69.8854 26.1509 69.8854 37.071V274.153H433.98V37.071C433.98 26.1509 437.143 17.5297 443.47 11.2075C449.797 4.31058 458.425 0.862106 469.354 0.862106Z" fill="white"/>
<path d="M815.168 182.769C920.427 182.769 973.057 237.944 973.057 348.295V582.791C973.057 593.137 969.894 601.47 963.567 607.792C957.815 614.115 949.762 617.276 939.409 617.276C929.055 617.276 920.715 614.115 914.388 607.792C908.061 601.47 904.897 593.137 904.897 582.791V541.409C893.969 566.124 877.288 585.377 854.856 599.171C832.424 612.39 806.54 619 777.206 619C750.172 619 725.151 613.54 702.143 602.62C679.711 591.7 661.88 576.469 648.651 556.928C635.421 537.386 628.807 515.833 628.807 492.269C628.807 460.658 636.86 436.231 652.965 418.989C669.07 401.172 695.529 388.527 732.341 381.056C769.153 373.009 820.345 368.986 885.916 368.986H904.897V340.536C904.897 306.052 897.707 280.763 883.328 264.67C869.523 248.577 846.803 240.531 815.168 240.531C776.055 240.531 736.367 251.163 696.104 272.429C680.574 282.2 669.645 287.085 663.318 287.085C656.416 287.085 650.664 284.499 646.062 279.326C641.461 274.153 639.16 267.544 639.16 259.497C639.16 251.451 641.461 244.554 646.062 238.806C651.239 232.484 659.292 226.162 670.22 219.84C690.352 208.345 713.072 199.436 738.38 193.114C764.264 186.217 789.86 182.769 815.168 182.769ZM786.696 563.825C821.207 563.825 849.392 552.33 871.249 529.34C893.681 505.775 904.897 475.601 904.897 438.818V413.816H889.367C838.751 413.816 800.213 416.115 773.754 420.713C747.296 424.736 728.314 431.921 716.811 442.266C705.882 452.037 700.418 466.693 700.418 486.234C700.418 508.649 708.47 527.328 724.576 542.272C741.256 556.64 761.963 563.825 786.696 563.825Z" fill="white"/>
<path d="M1295.11 562.1C1315.24 563.825 1325.31 573.02 1325.31 589.688C1325.31 599.459 1321.57 606.93 1314.09 612.103C1307.19 616.701 1296.55 618.425 1282.17 617.276L1258.87 615.552C1212.86 612.103 1178.92 598.309 1157.07 574.17C1135.21 550.031 1124.28 513.534 1124.28 464.681V248.29H1066.47C1056.7 248.29 1048.93 245.991 1043.18 241.393C1038 236.22 1035.41 229.61 1035.41 221.564C1035.41 212.943 1038 206.046 1043.18 200.873C1048.93 195.701 1056.7 193.114 1066.47 193.114H1124.28V95.695C1124.28 84.7748 1127.44 76.441 1133.77 70.6936C1140.1 64.3714 1148.73 61.2103 1159.65 61.2103C1170.01 61.2103 1178.35 64.3714 1184.67 70.6936C1191 76.441 1194.17 84.7748 1194.17 95.695V193.114H1289.93C1299.14 193.114 1306.33 195.701 1311.5 200.873C1317.26 206.046 1320.13 212.943 1320.13 221.564C1320.13 229.61 1317.26 236.22 1311.5 241.393C1306.33 245.991 1299.14 248.29 1289.93 248.29H1194.17V468.13C1194.17 499.741 1200.49 522.73 1213.15 537.099C1226.38 550.893 1245.93 558.652 1271.82 560.376L1295.11 562.1Z" fill="white"/>
<path d="M1713.43 184.493C1724.35 184.493 1732.69 187.654 1738.45 193.976C1744.77 200.299 1747.94 208.632 1747.94 218.978V583.653C1747.94 593.424 1744.77 601.47 1738.45 607.792C1732.69 614.115 1724.35 617.276 1713.43 617.276C1703.07 617.276 1694.73 614.402 1688.41 608.655C1682.65 602.332 1679.78 594.286 1679.78 584.515V541.409C1666.55 566.698 1647.85 585.952 1623.7 599.171C1600.11 612.39 1573.37 619 1543.46 619C1493.42 619 1455.74 605.206 1430.43 577.618C1405.12 549.456 1392.47 508.074 1392.47 453.474V218.978C1392.47 208.632 1395.63 200.299 1401.96 193.976C1408.29 187.654 1416.92 184.493 1427.84 184.493C1438.77 184.493 1447.11 187.654 1452.87 193.976C1459.19 200.299 1462.36 208.632 1462.36 218.978V451.749C1462.36 489.108 1469.83 516.695 1484.79 534.513C1499.74 551.755 1523.33 560.376 1555.54 560.376C1592.35 560.376 1621.97 548.594 1644.4 525.029C1666.84 500.89 1678.05 469.279 1678.05 430.196V218.978C1678.05 208.632 1681.22 200.299 1687.54 193.976C1693.87 187.654 1702.5 184.493 1713.43 184.493Z" fill="white"/>
<path d="M2089.21 182.769C2189.87 182.769 2240.2 238.232 2240.2 349.157V582.791C2240.2 593.711 2237.03 602.332 2230.7 608.655C2224.95 614.402 2216.61 617.276 2205.68 617.276C2194.76 617.276 2186.13 614.402 2179.8 608.655C2173.47 602.332 2170.31 593.711 2170.31 582.791V353.468C2170.31 314.385 2162.54 285.935 2147.01 268.118C2132.06 250.301 2107.9 241.393 2074.54 241.393C2036 241.393 2005.23 253.175 1982.22 276.74C1959.22 300.304 1947.71 332.202 1947.71 372.435V582.791C1947.71 593.711 1944.55 602.332 1938.22 608.655C1932.47 614.402 1924.13 617.276 1913.2 617.276C1902.27 617.276 1893.64 614.402 1887.32 608.655C1880.99 602.332 1877.83 593.711 1877.83 582.791V218.978C1877.83 208.632 1880.99 200.299 1887.32 193.976C1893.64 187.654 1902.27 184.493 1913.2 184.493C1923.55 184.493 1931.61 187.654 1937.36 193.976C1943.69 200.299 1946.85 208.345 1946.85 218.116V262.084C1960.65 236.22 1979.92 216.679 2004.66 203.46C2029.39 189.666 2057.57 182.769 2089.21 182.769Z" fill="white"/>
<path d="M3378.35 22.415C3380.65 14.9434 3384.68 9.48328 3390.43 6.03479C3396.18 2.0116 3402.51 0 3409.41 0C3418.62 0 3426.38 2.87372 3432.71 8.62116C3439.61 13.7939 3443.06 20.9782 3443.06 30.1741C3443.06 34.1973 3442.2 38.7953 3440.47 43.968L3245.49 593.136C3242.61 601.183 3237.72 607.505 3230.82 612.103C3223.92 616.126 3216.15 618.138 3207.52 618.138C3199.47 618.138 3191.99 616.126 3185.09 612.103C3178.19 607.505 3173.3 601.183 3170.42 593.136L3001.32 115.524L2830.49 593.136C2827.61 601.183 2822.72 607.505 2815.82 612.103C2808.92 616.126 2801.44 618.138 2793.39 618.138C2785.33 618.138 2777.86 616.126 2770.95 612.103C2764.05 607.505 2759.16 601.183 2756.29 593.136L2560.44 43.968C2558.71 39.37 2557.85 35.0594 2557.85 31.0362C2557.85 21.8403 2561.3 14.3686 2568.2 8.62116C2575.68 2.87372 2584.02 0 2593.22 0C2600.12 0 2606.45 2.0116 2612.2 6.03479C2618.53 9.48328 2622.84 14.9434 2625.14 22.415L2795.11 512.097L2967.67 27.5877C2970.55 18.9666 2975.15 12.6444 2981.47 8.62116C2987.8 4.02319 2994.7 1.72421 3002.18 1.72421C3009.66 1.72421 3016.56 4.02319 3022.89 8.62116C3029.21 13.2191 3033.82 19.8287 3036.69 28.4499L3206.66 513.822L3378.35 22.415Z" fill="white"/>
<path d="M3663.87 182.769C3769.13 182.769 3821.76 237.944 3821.76 348.295V582.791C3821.76 593.137 3818.59 601.47 3812.27 607.792C3806.51 614.115 3798.46 617.276 3788.11 617.276C3777.76 617.276 3769.41 614.115 3763.09 607.792C3756.76 601.47 3753.6 593.137 3753.6 582.791V541.409C3742.67 566.124 3725.99 585.377 3703.56 599.171C3681.12 612.39 3655.24 619 3625.91 619C3598.87 619 3573.85 613.54 3550.84 602.62C3528.41 591.7 3510.58 576.469 3497.35 556.928C3484.12 537.386 3477.51 515.833 3477.51 492.269C3477.51 460.658 3485.56 436.231 3501.66 418.989C3517.77 401.172 3544.23 388.527 3581.04 381.056C3617.85 373.009 3669.04 368.986 3734.62 368.986H3753.6V340.536C3753.6 306.052 3746.41 280.763 3732.03 264.67C3718.22 248.577 3695.5 240.531 3663.87 240.531C3624.75 240.531 3585.07 251.163 3544.8 272.429C3529.27 282.2 3518.34 287.085 3512.02 287.085C3505.12 287.085 3499.36 284.499 3494.76 279.326C3490.16 274.153 3487.86 267.544 3487.86 259.497C3487.86 251.451 3490.16 244.554 3494.76 238.806C3499.94 232.484 3507.99 226.162 3518.92 219.84C3539.05 208.345 3561.77 199.436 3587.08 193.114C3612.96 186.217 3638.56 182.769 3663.87 182.769ZM3635.4 563.825C3669.91 563.825 3698.09 552.33 3719.95 529.34C3742.38 505.775 3753.6 475.601 3753.6 438.818V413.816H3738.07C3687.45 413.816 3648.91 416.115 3622.45 420.713C3596 424.736 3577.01 431.921 3565.51 442.266C3554.58 452.037 3549.12 466.693 3549.12 486.234C3549.12 508.649 3557.17 527.328 3573.28 542.272C3589.96 556.64 3610.66 563.825 3635.4 563.825Z" fill="white"/>
<path d="M4091.18 619C4064.72 619 4039.41 615.839 4015.26 609.517C3991.67 603.195 3970.68 594.286 3952.27 582.791C3941.92 575.894 3934.44 569.572 3929.84 563.825C3925.81 557.502 3923.8 550.031 3923.8 541.409C3923.8 533.938 3925.81 527.903 3929.84 523.305C3934.44 518.132 3940.19 515.546 3947.1 515.546C3954 515.546 3964.06 519.857 3977.29 528.478C3994.55 538.823 4011.52 547.157 4028.2 553.479C4045.45 559.227 4066.74 562.1 4092.04 562.1C4123.1 562.1 4147.26 556.64 4164.52 545.72C4181.77 534.8 4190.4 518.994 4190.4 498.304C4190.4 485.659 4187.24 475.601 4180.91 468.13C4174.58 460.083 4163.65 453.186 4148.12 447.439C4132.59 441.117 4109.87 434.794 4079.96 428.472C4029.35 417.552 3993.11 402.896 3971.25 384.504C3949.4 366.112 3938.47 341.111 3938.47 309.5C3938.47 284.786 3945.37 262.946 3959.18 243.979C3972.98 225.013 3991.96 210.069 4016.12 199.149C4040.85 188.229 4068.75 182.769 4099.81 182.769C4122.24 182.769 4143.81 185.93 4164.52 192.252C4185.8 198 4204.49 206.333 4220.6 217.253C4240.15 231.047 4249.93 245.416 4249.93 260.359C4249.93 267.831 4247.63 274.153 4243.03 279.326C4238.43 284.499 4232.96 287.085 4226.64 287.085C4219.74 287.085 4209.38 282.2 4195.58 272.429C4179.47 262.084 4164.23 254.037 4149.85 248.29C4135.47 242.542 4117.64 239.669 4096.36 239.669C4069.32 239.669 4047.47 245.703 4030.79 257.773C4014.68 269.843 4006.63 285.935 4006.63 306.052C4006.63 318.696 4009.5 329.041 4015.26 337.088C4021.58 344.559 4031.65 351.456 4045.45 357.779C4059.83 363.526 4080.25 369.273 4106.71 375.021C4145.82 383.642 4176.02 393.125 4197.3 403.471C4219.16 413.816 4234.69 426.461 4243.89 441.404C4253.1 456.347 4257.7 475.314 4257.7 498.304C4257.7 534.513 4242.46 563.825 4211.97 586.24C4181.49 608.08 4141.22 619 4091.18 619Z" fill="white"/>
<path d="M4399.6 617.276C4389.25 617.276 4380.62 614.402 4373.72 608.655C4367.39 602.332 4364.22 593.711 4364.22 582.791V218.978C4364.22 208.058 4367.39 199.724 4373.72 193.976C4380.62 187.654 4389.25 184.493 4399.6 184.493C4409.95 184.493 4418.29 187.654 4424.62 193.976C4430.95 199.724 4434.11 208.058 4434.11 218.978V582.791C4434.11 594.286 4430.95 602.907 4424.62 608.655C4418.29 614.402 4409.95 617.276 4399.6 617.276ZM4399.6 93.9707C4385.79 93.9707 4374.58 89.9475 4365.95 81.9011C4357.32 73.8547 4353.01 63.2219 4353.01 50.0028C4353.01 37.3584 4357.32 27.013 4365.95 18.9666C4374.58 10.9202 4385.79 6.89695 4399.6 6.89695C4413.4 6.89695 4424.62 10.9202 4433.25 18.9666C4441.87 27.013 4446.19 37.3584 4446.19 50.0028C4446.19 63.2219 4441.87 73.8547 4433.25 81.9011C4424.62 89.9475 4413.4 93.9707 4399.6 93.9707Z" fill="white"/>
<path d="M5266.9 0.862106C5277.83 0.862106 5286.17 4.31058 5291.92 11.2075C5298.25 17.5297 5301.41 26.1509 5301.41 37.071V581.067C5301.41 591.987 5298.25 600.895 5291.92 607.792C5286.17 614.115 5277.83 617.276 5266.9 617.276C5255.97 617.276 5247.34 614.115 5241.01 607.792C5234.69 600.895 5231.52 591.987 5231.52 581.067V334.501H4867.43V581.067C4867.43 591.987 4864.27 600.895 4857.94 607.792C4851.61 614.115 4842.98 617.276 4832.06 617.276C4821.13 617.276 4812.5 614.115 4806.17 607.792C4800.42 600.895 4797.54 591.987 4797.54 581.067V37.071C4797.54 26.1509 4800.42 17.5297 4806.17 11.2075C4812.5 4.31058 4821.13 0.862106 4832.06 0.862106C4842.98 0.862106 4851.61 4.31058 4857.94 11.2075C4864.27 17.5297 4867.43 26.1509 4867.43 37.071V274.153H5231.52V37.071C5231.52 26.1509 5234.69 17.5297 5241.01 11.2075C5247.34 4.31058 5255.97 0.862106 5266.9 0.862106Z" fill="white"/>
<path d="M5615.3 619C5575.61 619 5540.53 610.091 5510.04 592.274C5480.13 574.457 5456.84 549.169 5440.16 516.408C5424.05 483.073 5416 444.565 5416 400.884C5416 357.204 5424.05 318.983 5440.16 286.223C5456.84 252.888 5480.13 227.312 5510.04 209.494C5540.53 191.677 5575.61 182.769 5615.3 182.769C5654.99 182.769 5690.08 191.677 5720.56 209.494C5751.05 227.312 5774.34 252.888 5790.45 286.223C5807.13 318.983 5815.47 357.204 5815.47 400.884C5815.47 444.565 5807.13 483.073 5790.45 516.408C5774.34 549.169 5751.05 574.457 5720.56 592.274C5690.08 610.091 5654.99 619 5615.3 619ZM5615.3 561.238C5656.71 561.238 5688.35 547.732 5710.21 520.719C5732.64 493.131 5743.85 453.186 5743.85 400.884C5743.85 349.732 5732.64 310.362 5710.21 282.774C5687.77 254.612 5656.14 240.531 5615.3 240.531C5574.46 240.531 5542.83 254.612 5520.39 282.774C5497.96 310.362 5486.75 349.732 5486.75 400.884C5486.75 452.611 5497.67 492.269 5519.53 519.857C5541.96 547.444 5573.89 561.238 5615.3 561.238Z" fill="white"/>
<path d="M6061.09 619C6034.63 619 6009.32 615.839 5985.16 609.517C5961.58 603.195 5940.59 594.286 5922.18 582.791C5911.83 575.894 5904.35 569.572 5899.75 563.825C5895.72 557.502 5893.71 550.031 5893.71 541.409C5893.71 533.938 5895.72 527.903 5899.75 523.305C5904.35 518.132 5910.1 515.546 5917 515.546C5923.91 515.546 5933.97 519.857 5947.2 528.478C5964.46 538.823 5981.43 547.157 5998.11 553.479C6015.36 559.227 6036.64 562.1 6061.95 562.1C6093.01 562.1 6117.17 556.64 6134.43 545.72C6151.68 534.8 6160.31 518.994 6160.31 498.304C6160.31 485.659 6157.15 475.601 6150.82 468.13C6144.49 460.083 6133.56 453.186 6118.03 447.439C6102.5 441.117 6079.78 434.794 6049.87 428.472C5999.26 417.552 5963.02 402.896 5941.16 384.504C5919.3 366.112 5908.38 341.111 5908.38 309.5C5908.38 284.786 5915.28 262.946 5929.08 243.979C5942.89 225.013 5961.87 210.069 5986.03 199.149C6010.76 188.229 6038.66 182.769 6069.72 182.769C6092.15 182.769 6113.72 185.93 6134.43 192.252C6155.71 198 6174.4 206.333 6190.51 217.253C6210.06 231.047 6219.84 245.416 6219.84 260.359C6219.84 267.831 6217.54 274.153 6212.94 279.326C6208.34 284.499 6202.87 287.085 6196.55 287.085C6189.64 287.085 6179.29 282.2 6165.49 272.429C6149.38 262.084 6134.14 254.037 6119.76 248.29C6105.38 242.542 6087.55 239.669 6066.27 239.669C6039.23 239.669 6017.37 245.703 6000.69 257.773C5984.59 269.843 5976.54 285.935 5976.54 306.052C5976.54 318.696 5979.41 329.041 5985.16 337.088C5991.49 344.559 6001.56 351.456 6015.36 357.779C6029.74 363.526 6050.16 369.273 6076.62 375.021C6115.73 383.642 6145.93 393.125 6167.21 403.471C6189.07 413.816 6204.6 426.461 6213.8 441.404C6223 456.347 6227.61 475.314 6227.61 498.304C6227.61 534.513 6212.36 563.825 6181.88 586.24C6151.39 608.08 6111.13 619 6061.09 619Z" fill="white"/>
<path d="M6524.05 562.1C6544.18 563.825 6554.24 573.02 6554.24 589.688C6554.24 599.459 6550.5 606.93 6543.03 612.103C6536.13 616.701 6525.48 618.425 6511.1 617.276L6487.81 615.552C6441.79 612.103 6407.86 598.309 6386 574.17C6364.14 550.031 6353.22 513.534 6353.22 464.681V248.29H6295.41C6285.63 248.29 6277.87 245.991 6272.11 241.393C6266.94 236.22 6264.35 229.61 6264.35 221.564C6264.35 212.943 6266.94 206.046 6272.11 200.873C6277.87 195.701 6285.63 193.114 6295.41 193.114H6353.22V95.695C6353.22 84.7748 6356.38 76.441 6362.71 70.6936C6369.03 64.3714 6377.66 61.2103 6388.59 61.2103C6398.94 61.2103 6407.28 64.3714 6413.61 70.6936C6419.94 76.441 6423.1 84.7748 6423.1 95.695V193.114H6518.87C6528.07 193.114 6535.26 195.701 6540.44 200.873C6546.19 206.046 6549.07 212.943 6549.07 221.564C6549.07 229.61 6546.19 236.22 6540.44 241.393C6535.26 245.991 6528.07 248.29 6518.87 248.29H6423.1V468.13C6423.1 499.741 6429.43 522.73 6442.08 537.099C6455.31 550.893 6474.87 558.652 6500.75 560.376L6524.05 562.1Z" fill="white"/>
<path d="M6948.4 515.546C6954.73 515.546 6960.19 518.132 6964.79 523.305C6969.39 528.478 6971.7 535.087 6971.7 543.134C6971.7 557.502 6961.63 570.721 6941.5 582.791C6920.79 594.861 6898.93 604.057 6875.93 610.379C6852.92 616.126 6830.49 619 6808.63 619C6743.63 619 6692.15 599.746 6654.19 561.238C6616.8 522.73 6598.11 469.566 6598.11 401.747C6598.11 358.641 6606.45 320.708 6623.13 287.947C6639.81 254.612 6663.11 228.748 6693.02 210.357C6723.5 191.965 6758.01 182.769 6796.55 182.769C6851.19 182.769 6894.62 200.586 6926.83 236.22C6959.04 271.854 6975.15 320.133 6975.15 381.056C6975.15 392.551 6972.85 400.884 6968.24 406.057C6963.64 411.23 6956.17 413.816 6945.81 413.816H6668C6673.17 512.672 6720.05 562.1 6808.63 562.1C6831.06 562.1 6850.33 559.227 6866.44 553.479C6882.54 547.157 6899.8 538.823 6918.2 528.478C6933.16 519.857 6943.22 515.546 6948.4 515.546ZM6797.41 237.082C6760.6 237.082 6730.98 248.577 6708.55 271.567C6686.69 294.557 6673.75 327.03 6669.72 368.986H6913.89C6912.74 326.455 6902.1 293.982 6881.97 271.567C6861.83 248.577 6833.65 237.082 6797.41 237.082Z" fill="white"/>
<path d="M7113.49 617.276C7103.14 617.276 7094.51 614.402 7087.61 608.655C7081.28 602.332 7078.11 593.711 7078.11 582.791V35.3468C7078.11 24.4267 7081.28 16.0928 7087.61 10.3454C7094.51 4.02319 7103.14 0.862106 7113.49 0.862106C7123.27 0.862106 7131.32 4.02319 7137.65 10.3454C7144.55 16.0928 7148 24.4267 7148 35.3468V582.791C7148 593.711 7144.55 602.332 7137.65 608.655C7131.32 614.402 7123.27 617.276 7113.49 617.276Z" fill="white"/>
</svg>
